<svg id="图层_1" data-name="图层 1" xmlns="http://www.w3.org/2000/svg" viewBox="0 0 1280 720"><defs><style>.cls-1{fill:#fff;}</style></defs><path class="cls-1" d="M314.42,582.59c-89.46,62-201.74,42.94-266.52-31.32-63.14-72.39-65.18-181.06-5.45-255.41,61.31-76.32,178.1-102.62,271.61-37.64V234h82.66V610.61h-82.3Zm-.11-161.81c.12-64-51.91-116.29-116-116.61C135.23,303.84,81.79,356.53,81.87,419,82,485.33,132.65,536.78,198,536.84A116.32,116.32,0,0,0,314.31,420.78Z"/><path class="cls-1" d="M872.92,99.35,764.27,239.85c10.45,0,19.22-.91,27.75.14,79.7,9.8,134.05,53.12,160.67,128.14C990,473.38,926.61,587.6,817.35,614.06c-70.92,17.18-134.17.9-187-49.86-34-32.69-52.12-73.69-55.56-120.92-3.75-51.67,13.92-96.49,44.19-137.17Q694.5,204.65,770.24,103.37c1.4-1.87,4.17-3.83,6.31-3.85C808.15,99.28,839.75,99.35,872.92,99.35Zm-104.34,216c-32.17.36-59.92,11.38-80.91,36.14C658.79,385.59,652.65,425,665.3,467c11.75,39,37.82,65.2,77.82,74.25,42.09,9.53,78.87-2.27,107.7-34.89,23.25-26.31,30.7-57.69,26.88-92.27C871.46,357.44,825.09,315.37,768.58,315.37Z"/><path class="cls-1" d="M1177.9,311.85H993.81v-75h285.74c.1,1.82.3,3.63.3,5.45,0,21.35.16,42.71-.13,64.06a16.34,16.34,0,0,1-3.33,9.48Q1188,422.73,1099.33,529.41c-1,1.26-2,2.59-3.91,5H1280v75.9H993.89c-.14-1.61-.42-3.39-.42-5.17,0-21.78-.13-43.55.12-65.33a14.35,14.35,0,0,1,3.11-8.28q89.07-108,178.38-215.8C1175.73,315,1176.29,314.08,1177.9,311.85Z"/><path class="cls-1" d="M536.26,610.47H453V175.29H398.9V99.79H536.26Z"/></svg>