<svg id="图层_1" data-name="图层 1" xmlns="http://www.w3.org/2000/svg" viewBox="0 0 751.69 816.59"><defs><style>.cls-1{fill:#1b5229;}.cls-2{fill:#fefefe;}.cls-3{fill:#8bc53f;}.cls-4{fill:#f26e21;}.cls-5{fill:#1c5229;}.cls-6{fill:#5e7a59;}.cls-7{fill:#f6f9f1;}.cls-8{fill:#b1d57b;}.cls-9{fill:#d7e9bd;}.cls-10{fill:#e2eecf;}.cls-11{fill:#fefefd;}.cls-12{fill:#265830;}.cls-13{font-size:150px;fill:#fff;font-family:FranklinGothic-Heavy, Franklin Gothic Heavy;font-weight:800;}.cls-14{font-family:BerlinSansFBDemi-Bold, Berlin Sans FB Demi;font-weight:700;letter-spacing:0em;}.cls-15{letter-spacing:0em;}</style></defs><path class="cls-1" d="M375.93,1.92c168.7,0,305.36,137,305.33,306.17,0,168.32-137.45,304.76-306.84,304.66-167.8-.1-304.11-137.75-304-307C70.55,138.65,208,1.92,375.93,1.92Z"/><path class="cls-2" d="M659,307.47c0,156.42-127,283.2-283.46,283.06S92.44,463.39,92.65,306.93,219.92,23.86,376.38,24.13C532.6,24.41,659.09,151.2,659,307.47Z"/><path class="cls-3" d="M441.79,54.38c-5.17,7.08-9.66,13.06-13.24,19.63-3.25,6-6,12.11-6.87,19-1.34,10.82,2.78,18.8,12.55,23.64,7.51,3.72,15.62,4.85,23.87,5.09,13.9.41,27.85-.91,41.7,1.25a56.59,56.59,0,0,1,12.39,3.21c10.64,4.26,16.69,11.93,17.09,23.57.21,6.05-.26,12.15.22,18.18.94,11.8,6.33,21.73,13.61,30.85,6.21,7.77,13,15.2,15.09,25.5,3.22,15.82-1.65,28.64-14.9,37.73a57.2,57.2,0,0,1-11.61,6.56c-10.47,4-17.92,11.34-24.46,20.06-10.87,14.51-22.54,28.43-38.9,36.95-33.48,17.42-68.1,24.08-104.4,8.66-8.94-3.8-16.68-9.54-24.29-15.49a189.67,189.67,0,0,0-27.74-18.12c-17.7-9.39-36-11.73-55.33-5.71-9.22,2.87-18.63,5.29-28.41,3.31C180.75,288.6,176.63,242,200,214.74c4.09-4.77,8.48-9.48,14.15-12.11,12.48-5.8,16.33-16.54,18.19-28.86,1.51-10,2.31-20.18,5.16-30,4.66-16.06,15.5-23.32,32.22-21.29,8,1,15.9,2.16,23.87,3,15.32,1.63,29-2.24,40.57-12.69,7.28-6.59,14.2-13.57,21.58-20C380,71.44,409.13,60.6,441.79,54.38Z"/><path class="cls-1" d="M303.51,478.66c2.7-14.13,5.56-28.24,8-42.41.69-4.07,1.94-5.8,6.33-5.51,6,.4,12.14.16,18.21.07,2.44,0,3.47.28,2.8,3.28q-9.54,42.5-18.73,85.09c-.59,2.72-1.85,3.38-4.38,3.32-6.61-.13-13.23-.28-19.82,0-3.65.19-4.85-1.3-5.72-4.54-4.63-17.18-9.47-34.31-14.56-52.6-4.64,16.62-9,32.15-13.31,47.69-2.6,9.35-2.57,9.36-12.05,9.36-3.57,0-7.19-.39-10.7.09-5.86.79-8.19-1.29-9.42-7.26-5.52-26.7-11.49-53.3-17.62-79.86-1-4.39.38-4.66,4-4.65q34,.17,68,0c3.51,0,4.85,1.06,5.74,4.46,3.83,14.59,8,29.09,12.07,43.62Z"/><path class="cls-4" d="M511.94,471.92a19.84,19.84,0,0,0,2.11,1.27c12,5,16.58,12.73,15,25.09-1.37,10.54-9.37,18.65-20.71,19.89-4.62.5-5.67,2.3-5.21,6.36.56,5-1.59,7-6.79,7s-7.45-1.95-6.76-7c.57-4.15-1.12-5.45-5.05-4.93a22.69,22.69,0,0,1-5.88,0c-5.68-.77-9.11.27-8.29,7.33.54,4.64-3.48,4.43-6.8,4.47s-6.76-.39-6.23-4.55c.85-6.53-2-8.13-7.7-7.23-2.39.37-3-.93-3-3.15q.07-41.49,0-83c0-2.91,1.5-3.4,3.66-3,6.25,1.17,7.53-1.8,7-7.35-.38-4-1.41-9,5.63-9,6.66,0,7.59.73,7.64,7.65.05,8.66.05,8.66,8.84,8.66,9.92,0,10.1,0,10.07-9.9,0-5.05,2.28-6.43,6.89-6.44s7.37,1.53,6.78,6.47c-.77,6.43.3,10.45,8,12.23,8.21,1.89,12.9,8.59,13.79,17.25Q526.48,465.44,511.94,471.92Z"/><path class="cls-1" d="M384.66,523.78a63,63,0,0,1-18.17-2.1,30.87,30.87,0,0,1-22.67-26.27c-.24-2.22-.23-3.67,2.76-3.74,6.6-.16,13.2-.52,19.77-1.16,3.11-.31,4.26.62,5.09,3.63,2.57,9.38,10.76,13.8,19.85,11,4-1.24,7-3.54,7.32-8.15.26-4.4-2.36-6.91-6-8.56-4.74-2.13-9.86-3-14.86-4.3-6.39-1.66-12.67-3.64-18.38-7.06-16.7-10-17-32.8.17-41.88,16.52-8.71,34.07-8.23,51-.31,7.5,3.51,10.64,10.67,12.39,18.44.62,2.79-.32,3.8-3.2,3.89-6.6.2-13.19.64-19.77,1.12-2.29.16-3.24-.43-4.07-2.83a13.44,13.44,0,0,0-18.21-7.9c-2.5,1.09-4.12,2.79-4.26,5.6-.15,3,1.58,4.76,4.15,5.5,6.33,1.83,12.74,3.32,19.06,5.14a109,109,0,0,1,12.63,4.27c9.48,4.05,16,10.72,16.92,21.49,1,11.88-3.48,21.29-13.44,27.85C404.33,523,394.8,524,384.66,523.78Z"/><path class="cls-1" d="M472.68,333.85c-1.56,5.63-4,9.75-6.44,13.83-20,33.55-49.78,52.14-88.18,57.17-32.22,4.21-62.15-1.84-88.62-21.45-24.66-18.26-39.35-43.16-47.49-72.35-.85-3.08.28-3.82,3-4.33a140.51,140.51,0,0,0,14-3.34c3.39-1,4.59-.5,5.73,3.31,12.56,41.87,39.7,69.53,82.62,78.76,44.93,9.68,82.21-5.12,110.84-41A33,33,0,0,1,472.68,333.85Z"/><path class="cls-5" d="M391.87,367.25c-13.87,5.12-28.09,8.1-42.94,6.49-15.3-1.67-26.3-9.25-32-23.9-.57-1.49-1.17-3-1.8-4.56,1.28-1.12,2.34-.09,3.43.73,21,15.89,44.92,21.74,70.93,20.07C390.62,365.86,391.93,365.19,391.87,367.25Z"/><path class="cls-6" d="M391.87,367.25l-2.34-1.17a12.15,12.15,0,0,1,2.39-.72,37.44,37.44,0,0,1,3.87,0A4.55,4.55,0,0,1,391.87,367.25Z"/><path class="cls-2" d="M410.72,317.18c8.54-2.9,17.15-5.63,25.61-8.76,13.08-4.84,25.71-10.62,36.85-19.21,1.13-.87,2.26-1.74,3.33-2.68,19.81-17.33,17.14-45.31-5.61-58.81-11.72-7-25-9.13-37.94-12.43a206.33,206.33,0,0,1-21.51-6.35c-30.28-11.4-42.81-34.28-36-66,.39-1.83.24-3.89,2.22-6.19.84,7.82.17,15,1.22,22,2.79,18.68,12.67,31.36,30.39,37.93,13.45,5,27.67,6.73,41.55,9.9a124.48,124.48,0,0,1,18.41,5.51c20.6,8.19,33.84,27.66,33.3,49-.36,14.7-8.36,25.06-19.52,33.36-16.28,12.09-35.18,17.75-54.78,21.43C422.45,317,416.69,318.25,410.72,317.18Z"/><path class="cls-2" d="M223.28,277.91c-17.05-16.23-18.07-42.26-2.26-56.61a30.83,30.83,0,0,1,19.8-8.32c9.45-.43,18.9-.75,28.35-1,4.4-.12,6.57-1.42,4.8-6.37a36,36,0,0,1-2-12.09c0-10.33,5-17.41,15-20.08,7.21-1.92,14.65-3,21.93-4.7,22.43-5.23,39.83-18.53,55.32-34.82,1.22-1.28,2.47-2.54,3.73-3.79.09-.09.35,0,.65,0,1.09,1.68-.65,2.49-1.31,3.44-16.91,24-38.87,40.49-68.17,46.2a69.08,69.08,0,0,0-9.3,2.43c-6.6,2.28-9,6.36-7.8,13.22.69,3.84,1.81,7.61,2.73,11.42,1.93,8-.76,12.64-8.75,14.81-5.89,1.61-12,1.73-18,1.89-4.81.13-9.64,0-14.45.17-16.25.56-27.33,13.34-25.86,29.62A69.24,69.24,0,0,0,223,274.45C223.49,275.59,224,276.68,223.28,277.91Z"/><path class="cls-2" d="M366.26,161.68c-1.65,8-3.34,16-4.95,24.07-1.85,9.29.76,16.78,8.68,22.45,6.83,4.89,14,9.15,21.21,13.5a55.25,55.25,0,0,1,12.56,9.91c8.87,9.77,9.65,21.52,2,32.26-5.94,8.31-14.08,14.08-22.84,19.05-16.25,9.22-33.7,15.35-51.77,19.83-1.29.32-2.68.89-4.37-.15,8.66-4.56,17.19-8.89,25.57-13.49,12.37-6.79,24.58-13.86,35.09-23.41a51.69,51.69,0,0,0,6.85-7.49c5.51-7.49,4.74-13.44-2.3-19.65-5-4.4-10.88-7.45-16.34-11.15a101.9,101.9,0,0,1-15.5-12.28c-8.16-8.23-10.69-17.8-7.17-28.95,3-9.41,7.48-18.09,12.35-26.62C367.3,159.5,366.7,160.62,366.26,161.68Z"/><path class="cls-2" d="M506.94,167.79c-2.24,0-2.84-1.29-3.66-2.15-16.9-17.7-37.59-22.78-61.16-18.57-12.31,2.19-24.68,4.23-37.17,1.59-10.2-2.16-18.47-6.81-20.87-18a19.43,19.43,0,0,1-.33-6.36c1.47-11.9,13.15-28.59,24.24-34.87,1.32,1.49-.32,2.2-.91,3.06-5.52,7.93-10.69,16-13.33,25.46-3.11,11.14.61,17.23,11.83,19.29,11.55,2.14,22.67-.89,33.86-3,21.58-4,41.27-1.13,57,15.75A45.78,45.78,0,0,1,506.94,167.79Z"/><path class="cls-2" d="M369.51,140.25a134.41,134.41,0,0,1-9.79,20.16,56.32,56.32,0,0,1-27.59,23.52,98.69,98.69,0,0,0-13,6.18c-7,4.14-7,7.18-.28,11.57,3.43,2.24,7.06,4.16,10.55,6.31,16.84,10.37,17,29,.36,39.77-7.41,4.81-15.64,7.77-24.08,10.07-8.07,2.19-16.27,3.89-24.41,5.83-7.93,1.89-15.85,3.81-24.32,5.85,3.34-3.68,7.4-5.35,11.3-7.2,12.26-5.81,25.26-9.72,37.79-14.83,7.26-3,14.66-5.75,20.54-11.19,6.87-6.33,6.37-13.89-1.24-19.29-4.5-3.19-9.35-5.92-13.7-9.31-9.2-7.19-8.7-16.83,1-23.31a45.22,45.22,0,0,1,13.59-6.12c16-4.23,27.17-14.37,35.52-28.15,2.22-3.66,4.48-7.3,6.72-10.94C369.42,138.92,369.94,139.12,369.51,140.25Z"/><path class="cls-2" d="M387.56,152c9.22,12,20.65,20.58,36,23.09,10.45,1.72,20.57-.67,30.8-2.15,13.16-1.91,26.36-2.14,39.27,1.66,23,6.77,36.41,22.08,39.88,45.92.64,3.16.64,3.16-1,3.95-11-24.67-29.84-37.77-56.87-39.48a289.58,289.58,0,0,0-34.23-.17c-24.09,1.33-46.38-11.46-55-31.5C385.9,152.09,386.51,151.84,387.56,152Z"/><path class="cls-2" d="M362.21,120.48C342,139.77,321.39,156.6,291,152.32a54.29,54.29,0,0,0-19.67.92c-13.73,3.11-20.14,11.92-21,28.78-2.86-3.92-3.43-10.77-1.36-17.34,2.84-9,9.21-14.63,17.73-18A50.26,50.26,0,0,1,293,143.73c13.12,2,25.08-1.17,36.81-6.35,10.14-4.47,19.52-10.3,28.88-16.18C359.47,120.69,360.16,119.56,362.21,120.48Z"/><path class="cls-7" d="M387.56,152l-1.16,1.32-3-5.72C386.37,148.39,386.72,150.39,387.56,152Z"/><path class="cls-8" d="M532.5,224.45c1.5-1,.5-2.67,1-3.95,1.31,1.32.93,3,.92,4.56,0,.8-.37,1.49-1.27.77C532.8,225.55,532.71,224.92,532.5,224.45Z"/><path class="cls-9" d="M369.51,140.25l-1.06-1.08a3.49,3.49,0,0,1,2.55-2.72C371.58,138.2,370.45,139.2,369.51,140.25Z"/><path class="cls-10" d="M366.26,161.68l-1-2.12c.24-.86,1-2.22,1.5-1.68C367.87,159,367.17,160.49,366.26,161.68Z"/><path class="cls-2" d="M263.44,473c-4.51-1.6-9.08,2.17-12.22-2.88-.81-1.31-2,.54-3,1.06a18.61,18.61,0,0,1-14.47,1.55c-4.07-1.19-6.35-4-6.48-8.17s1.82-7.28,6-8.43c4.63-1.28,9.35-2.18,14-3.49,1.28-.36,3.6-.35,3-2.85-.47-1.91-2.09-2.32-3.77-2.24-1.41.06-3.42-.14-4.1.67-4.28,5.08-9.12,1.66-13.83,1.52,2.29-8.24,9.06-11,22.29-9.32,8.37,1.06,11.35,4.51,11.55,13.05C262.51,459.67,261.66,465.91,263.44,473Z"/><path class="cls-2" d="M485.14,500.58c-10.7,0-10.7,0-10.7-10,0-8.41,0-8.34,8.35-8.44a56,56,0,0,1,11.64,1c4.07.81,6.69,3.12,6.91,7.54s-1.55,7.53-5.91,8.94C491.82,500.72,488.07,500.4,485.14,500.58Z"/><path class="cls-11" d="M483.43,448.38a72.38,72.38,0,0,1,7.95.6c4.19.76,6.56,3.44,6.56,7.78,0,4.17-1.85,7-6.16,8.15-4.9,1.26-9.87.69-14.82.84-1.81.05-2.57-.76-2.53-2.54.05-1.95,0-3.91,0-5.86C474.43,448.51,474.43,448.51,483.43,448.38Z"/><path class="cls-12" d="M250.41,461a7,7,0,0,1-7.69,5.81c-2-.35-3.31-1.38-3.16-3.58s7.09-5.73,9.81-5.14C251.19,458.49,250.2,460,250.41,461Z"/><text class="cls-13" transform="translate(0.3 809.24)">aWSB<tspan class="cls-14" x="410.45" y="0">.</tspan><tspan class="cls-15" x="452.56" y="0">club</tspan></text></svg>