<svg id="图层_1" data-name="图层 1" xmlns="http://www.w3.org/2000/svg" viewBox="0 0 1280 720"><defs><style>.cls-1{fill:#375bd1;}</style></defs><path class="cls-1" d="M870.15,134.68c0-3.05-.91-4.69-3.58-6.22Q756.13,65.13,645.82,1.58c-2.66-1.53-4.54-1.52-7.19,0q-101.7,59.09-203.52,118c-6.83,4-13.5,8.19-20.64,11.59V394.75c1.07.59,2.15,1.17,3.21,1.78Q528.17,460.1,638.62,523.74c2.88,1.66,4.88,1.69,7.75,0Q756.46,459.83,866.7,396.15c2.57-1.48,3.45-3,3.45-6Q870,262.43,870.15,134.68ZM770.82,340q-62.67,36.15-125.19,72.53c-2.26,1.32-3.82,1.17-6-.08q-62.7-36.06-125.52-71.93a4.91,4.91,0,0,1-2.91-4.93q.12-72.74,0-145.46a4.45,4.45,0,0,1,2.48-4.51q62.88-36.45,125.63-73.1a5.15,5.15,0,0,1,6,0q62.82,36.19,125.76,72.2c2.17,1.24,2.77,2.62,2.76,5-.09,24.3-.06,48.6-.06,72.9,0,24,0,47.93.06,71.89C773.88,337.14,773.18,338.67,770.82,340Z"/><path class="cls-1" d="M1057.52,716.52c-8.2,0-16.39-.11-24.58,0a5.05,5.05,0,0,1-4.78-2.56c-8-11.55-16.2-23-24.25-34.53-1.11-1.59-1.76-1.93-3.19-.3-2.72,3.12-5.62,6.08-8.53,9a4.51,4.51,0,0,0-1.38,3.51c.05,7.37,0,14.73.06,22.1,0,1.88-.55,2.39-2.39,2.35-5.88-.11-11.75-.1-17.63,0-1.74,0-2.45-.32-2.45-2.29q.09-68.15,0-136.29c0-1.92.65-2.36,2.44-2.33,5.71.09,11.42.13,17.13,0,2.25-.05,2.92.58,2.92,2.9-.09,26-.06,52-.06,78v2.85c1.22-.09,1.61-1,2.18-1.6q16.26-17.07,32.47-34.21a5,5,0,0,1,4.09-1.75c8.11.07,16.22,0,24.33,0a4.07,4.07,0,0,1,2.46.3c-.22,1.06-1.13,1.57-1.79,2.24q-17.55,17.91-35.16,35.76c-1.13,1.15-1.57,1.88-.43,3.45q18.75,25.79,37.36,51.69c.32.45.52,1,1.18,1.18Z"/><path class="cls-1" d="M222.57,647.64c-.64-15,3-29,11.6-41.4,14.92-21.43,35.69-31.52,61.8-30.44,14.26.59,27.34,4.66,38.53,13.8a57.5,57.5,0,0,1,18.93,29.06c.45,1.53.05,2-1.32,2.47-6,1.94-11.94,3.88-17.85,6-1.86.67-2.29.11-2.81-1.58-4.78-15.43-15.2-25.18-31.07-27.43-26.71-3.79-48.1,11.54-52.9,37.76a62.69,62.69,0,0,0,1.38,29.47c5.61,18.91,21.3,31,41,31.76,20.4.75,35.8-9.54,42.79-28.7.52-1.42,1-1.51,2.29-1.09,5.88,1.94,11.77,3.87,17.71,5.64,1.81.55,1.81,1.39,1.3,2.89-6.93,20.56-20.51,34.84-41.36,40.76-36.38,10.33-73.46-7.17-86.31-43A66.59,66.59,0,0,1,222.57,647.64Z"/><path class="cls-1" d="M397.05,630.28C402.87,624,409.23,620.09,417,619c23.68-3.3,39,9.34,41,31.46,1.06,11.38.3,22.82.41,34.23.08,9.68,0,19.37.05,29,0,1.82-.44,2.44-2.35,2.41-5.79-.13-11.58-.1-17.37,0-1.58,0-2.13-.39-2.13-2.06.07-18.28-.23-36.57.2-54.85.23-10.12-6.48-18.42-15.23-19.67-11.33-1.61-21.28,4.81-23.6,15a26.92,26.92,0,0,0-.55,5.67c-.1,17.7-.28,35.41-.3,53.11,0,2.35-.74,2.87-2.93,2.82-5.79-.14-11.59-.1-17.38,0-1.61,0-2.31-.27-2.31-2.12q.08-68.26,0-136.52c0-1.71.46-2.29,2.22-2.26,5.95.09,11.91.11,17.87,0,2,0,2.51.55,2.5,2.51-.08,16.54,0,33.09,0,49.64Z"/><path class="cls-1" d="M878.25,633c5.24-6.87,11.57-11.82,19.9-13.48,19.34-3.85,39.07,4.64,42.16,30.19a84.08,84.08,0,0,1,.45,10.4c0,17.79,0,35.57.06,53.36,0,2.26-.67,2.75-2.79,2.7-5.87-.14-11.75-.09-17.62,0-1.63,0-2.34-.31-2.34-2.15.07-17.79-.13-35.58.15-53.36.09-5.83-.74-11-4.74-15.39-6-6.46-13.42-7.24-21.21-4.6-8.35,2.83-12.65,9.16-13.43,17.9-.1,1.15-.06,2.31-.05,3.47,0,17.21,0,34.42.1,51.62,0,1.9-.43,2.57-2.45,2.53-6-.13-11.91-.1-17.87,0-1.66,0-2.28-.36-2.28-2.17q.09-45.16,0-90.34c0-1.67.38-2.32,2.18-2.29,5.87.11,11.75.1,17.62,0,1.79,0,2.25.6,2.18,2.29C878.17,626.75,878.25,629.87,878.25,633Z"/><path class="cls-1" d="M663.2,632.94a42.91,42.91,0,0,1,11.31-10.1,33.68,33.68,0,0,1,50.21,23.34,60.88,60.88,0,0,1,1,10.61c0,19,0,37.89,0,56.84,0,1.89-.41,2.58-2.44,2.53-5.71-.14-11.42-.16-17.13,0-2.34.07-3.07-.5-3-3,.11-17.12.06-34.25,0-51.38a39.84,39.84,0,0,0-.9-9.36c-3.77-15.54-22.28-16.14-30.66-9.29-5.46,4.47-7.83,10.22-7.82,17.18,0,17.62-.09,35.24,0,52.87,0,2.46-.7,3-3,2.95-5.79-.17-11.58-.1-17.37,0-1.56,0-2.15-.34-2.14-2q.07-45.3,0-90.6c0-1.59.41-2.16,2.06-2.14q8.94.12,17.88,0c1.69,0,2.09.62,2,2.17C663.13,626.67,663.2,629.81,663.2,632.94Z"/><path class="cls-1" d="M775.5,645.75c0,22.51,0,45,0,67.54,0,2.25-.56,3-2.86,2.88-5.62-.18-11.26-.17-16.88,0-2.26.07-2.88-.56-2.87-2.85q.1-51.52,0-103c0-10.84,0-21.68,0-32.52,0-1.91.46-2.58,2.46-2.54,5.79.13,11.59.15,17.38,0,2.2-.05,2.76.59,2.76,2.77C775.46,600.57,775.5,623.16,775.5,645.75Z"/><path class="cls-1" d="M589.72,669c0-15,0-30.09,0-45.14,0-1.91.46-2.58,2.46-2.54,6,.12,12.07.08,18.11,0,1.56,0,2.17.41,2.16,2.09q-.06,45.27,0,90.54c0,1.56-.39,2.17-2.07,2.18-6.12,0-12.24.14-18.35.38-2,.08-2.32-.6-2.31-2.38C589.75,699.13,589.72,684.08,589.72,669Z"/><path class="cls-1" d="M804.72,669.1c0-15.05,0-30.1-.05-45.16,0-2.1.6-2.64,2.64-2.6,5.87.14,11.75.11,17.62,0,1.77,0,2.2.57,2.19,2.26q-.06,45.17,0,90.32c0,1.74-.5,2.24-2.23,2.25-5.87,0-11.74.12-17.61.37-2,.09-2.63-.45-2.62-2.55C804.77,699,804.72,684.07,804.72,669.1Z"/><path class="cls-1" d="M615.67,587.93a14.72,14.72,0,1,1-29.44-.08c0-7.74,6.63-14.65,14-14.63C608.94,573.24,615.64,579.61,615.67,587.93Z"/><path class="cls-1" d="M830.54,588a14.65,14.65,0,1,1-14.64-14.61A14.56,14.56,0,0,1,830.54,588Z"/><path class="cls-1" d="M563.27,714.47a97.52,97.52,0,0,1-.94-15.84c0-15.39.26-30.78-.11-46.16-.33-13.86-6.24-24.74-19.55-30.14a50.37,50.37,0,0,0-38-.55c-11.62,4.47-19.3,12.76-22.09,25.18-.43,1.9-.11,2.76,2.05,3.16,5.27,1,10.52,2.17,15.72,3.52,2,.51,2.47,0,2.81-1.89,1.39-7.56,6-12.34,13.33-14.43,3.58-1,7.26-.66,10.84-.08,8.07,1.31,12.63,6.2,12.81,13.41.1,4.28-1.61,6.49-5.82,7.24s-8.34,1.3-12.49,2c-7.07,1.24-14.32,1.64-21.18,4-10.47,3.54-17.84,10.17-19.55,21.54s2.19,20.84,11.27,28c6.36,5,13.75,6.35,21.7,6.12,10.77-.32,19.52-4.42,26.31-12.76.39-.48.58-1.19,1.39-1.36.26,3,.53,6.05.76,9.06.11,1.45.57,2.18,2.27,2.14,5.54-.11,11.09-.1,16.63,0C563.12,716.64,563.53,716.07,563.27,714.47Zm-44.9-12.75-3-.07a12.4,12.4,0,0,1-12.26-11.07c-.63-6.44,3.7-12.64,10-13.72,8.55-1.47,17.16-2.6,25.73-3.9,1.08-.16,1.55.12,1.51,1.25-.05,1.48,0,3,0,4.46C541.35,691.79,531.5,702.05,518.37,701.72Z"/></svg>