<svg id="图层_2" data-name="图层 2" xmlns="http://www.w3.org/2000/svg" viewBox="0 0 1280 720"><defs><style>.cls-1{fill:#db812e;}.cls-1,.cls-2,.cls-3{fill-rule:evenodd;}.cls-2{fill:#fff;}.cls-3{fill:#1b3d76;}</style></defs><path class="cls-1" d="M451.78,350c0,2.86,2.86,77-57.73,171.36-60.66,96.25-160.83,127.08-165.59,128H225.6c-3.87-1-104-31.78-164.64-128-55.83-86.66-58.75-156-58.75-168.5V74.61H451.84V350Z"/><path class="cls-2" d="M516.3,409.66h11.55l27,48.15V409.66h8.63v59.7H551.9l-27-49.11v49.11h-8.69v-59.7ZM603.92,453c0,5.77-4.82,11.55-12.5,11.55-3.87,0-8.69-2.86-8.69-7.68,0-7.74,11.55-7.74,15.42-7.74h5.77Zm-24-17.32a21.06,21.06,0,0,1,12.5-3.87c8.69,0,11.55,3.87,11.55,10.59h-8.69c-8.69,0-20.23,3.87-20.23,14.47,0,9.64,5.77,13.45,15.41,13.45,7.68,0,11.55-3.87,13.45-6.73v5.78h7.68v-26c0-12.5-4.82-18.28-17.32-18.28a31.63,31.63,0,0,0-14.46,3.87l.11,6.73Zm68.34-2.92H636.66v24.11c0,4.82,2.86,7.68,6.72,7.68a8.24,8.24,0,0,0,5.78-1.91v6.73c-1.91.95-4.82.95-6.73.95-8.69,0-13.45-3.87-13.45-12.5V432.75h-9.64V426H629V415.43l7.68-1.91V426h11.55Zm11.54,36.61h7.68V426h-7.68Zm-1-53h9.64v-9.64H658.8Zm28.93,31.79c0-8.64,5.77-16.37,14.46-16.37,7.68,0,13.45,7.68,13.45,16.37,0,7.73-4.82,16.37-13.45,16.37C692.49,464.54,687.73,455.9,687.73,448.17Zm-8.69,0c0,12.5,9.64,22.14,23.09,22.14a21.8,21.8,0,0,0,22.14-22.14c0-13.46-9.64-23.1-22.14-23.1C688.68,425.07,679,434.71,679,448.17Z"/><path class="cls-3" d="M441.19,259.48V84.19H13.7V260.38l427.49-.9Z"/><path class="cls-2" d="M734.87,426h7.73v6.73c2.86-4.82,8.64-7.68,14.47-7.68,11.54,0,16.37,6.73,16.37,18.28v26H765.7V447.21c0-10.59-2.86-15.41-9.64-15.41-9.64,0-13.46,6.73-13.46,17.32v20.24h-7.73V426Zm78,27c0,5.77-3.87,11.55-11.55,11.55-3.87,0-8.63-2.86-8.63-7.68,0-7.74,10.59-7.74,15.41-7.74H813L812.9,453Zm-23.15-17.32c2.91-2.92,7.73-3.87,12.5-3.87,7.68,0,10.59,3.87,10.59,10.59h-8.69c-7.68,0-20.18,3.87-20.18,14.47,0,9.64,6.73,13.45,16.37,13.45,7.74,0,11.55-3.87,13.46-6.73v5.78h7.73v-26c0-12.5-5.77-18.28-18.27-18.28-4.82,0-9.64,1.91-14.47,3.87l1,6.73ZM836,405.79h7.68v63.57H836Zm91.43,39.52c0,16.37-8.69,25.06-23.09,25.06-15.42,0-23.1-8.64-23.1-25.06V409.66h8.63v33.69c0,11.54,2.92,20.23,14.47,20.23,10.59,0,14.46-8.63,14.46-20.23V409.66h8.69l-.06,35.65ZM941.88,426h7.68v6.73c2.92-4.82,8.64-7.68,14.47-7.68,11.54,0,16.37,6.73,16.37,18.28v26h-7.74V447.21c0-10.59-2.86-15.41-9.64-15.41-8.63,0-13.46,6.73-13.46,17.32v20.24h-7.68V426Zm53,0h8.63v43.34h-8.63Zm0-19.22h8.63v9.64h-8.63Zm42.32,62.56h-9.64L1012.12,426h8.69l11.55,35.66h1L1044.86,426h8.63l-16.31,43.34Zm29.88-26c0-5.78,3.87-11.55,11.55-11.55,6.72,0,10.59,4.82,10.59,11.55Zm27,16.36c-1.9,1.91-7.73,4.83-12.5,4.83a14.84,14.84,0,0,1-14.46-14.47h30.83c0-14.46-4.82-25.05-19.23-25.05-12.5,0-20.23,8.63-20.23,22.14,0,14.46,6.72,23.09,22.14,23.09,7.68,0,10.59-.95,13.45-2.91v-7.63ZM1108.48,426h7.68v6.73a12.45,12.45,0,0,1,11.55-7.68h5.78v7.68a10.75,10.75,0,0,0-4.83-.95c-7.68,0-11.54,6.73-11.54,18.27V469.3h-8.64V426Zm29.83,34.65a18.24,18.24,0,0,0,10.59,3.87c3.87,0,7.68-1.91,7.68-6.73,0-7.68-18.27-6.73-18.27-19.23,0-9.64,6.72-13.45,15.41-13.45a28.91,28.91,0,0,1,9.64,1.9l-.95,6.73c-1-.95-5.77-1.91-7.68-1.91-4.82,0-7.74,1-7.74,4.83,0,8.63,18.33,6.72,18.33,20.23,0,9.64-6.72,13.46-15.41,13.46-3.87,0-7.74,0-11.55-1.91l0-7.79ZM1175.86,426h8.64v43.34h-8.64Zm0-19.22h8.64v9.64h-8.64Zm46.19,25.95h-11.54v24.11c0,4.82,2.86,7.68,6.72,7.68a8.15,8.15,0,0,0,5.78-1.91v6.73c-1.91.95-3.87.95-6.73.95-8.63,0-13.45-3.87-13.45-12.5V432.75h-9.65V426h9.65V415.43l7.73-1.91V426h11.55v6.73Zm6.79,49.11h3.86c7.74,0,9.65-9.64,9.65-10.6s-1-2.91-1-4.82L1226,426h8.69l12.5,36.61L1258.71,426h8.64L1251,470.31c-2.86,8.63-5.77,18.27-16.37,18.27-2.91,0-4.82,0-5.77-.95v-5.77ZM521.13,549.29c0-8.63,4.82-16.37,13.45-16.37S549,540.66,549,549.29c0,7.68-4.82,16.37-14.46,16.37C526,565.66,521.13,557,521.13,549.29Zm-8.69,0c0,12.5,9.64,23.1,22.14,23.1,13.45,0,22.14-10.6,22.14-23.1,0-13.45-8.69-23.09-22.14-23.09C522.08,526.14,512.44,535.78,512.44,549.29Zm60.65-15.41H562.55v-6.73h10.6v-3.87c0-10.59,2.85-17.32,14.46-17.32h5.77v6.73c-1,0-2.86-1-3.87-1-7.68,0-7.68,4.83-7.68,10.6v4.82h11.55v6.73H581.83v36.6h-8.68l-.06-36.6Zm78-13.51c-4.82-1.91-6.73-2.92-11.55-2.92S629,519.36,629,525.19c0,11.55,26,9.64,26,28.87,0,12.5-9.64,18.27-22.14,18.27-3.87,0-8.64-1.9-12.5-2.86l.95-7.73c2.86,1,8.69,2.91,12.5,2.91,4.82,0,11.55-2.91,11.55-9.64,0-13.51-25.06-9.64-25.06-28.87,0-10.59,7.68-16.37,19.28-16.37a29.72,29.72,0,0,1,12.5,2.86l-1,7.74Zm15.42,6.72h8.63v43.34h-8.63Zm0-18.27h8.63v8.63h-8.63Zm23.09,18.27h7.68v6.73c2.86-4.82,8.63-7.68,14.46-7.68,11.55,0,16.37,6.73,16.37,19.23v25.06h-7.73V548.28c0-10.59-2.86-15.41-9.65-15.41-8.63,0-13.45,6.72-13.45,17.32v20.24h-7.68V527.09Zm70.3,37.56c-7.68,0-12.5-7.73-12.5-15.41s3.86-16.37,12.5-16.37,12.5,7.73,12.5,16.37S767.61,564.65,759.93,564.65Zm20.18-37.56h-6.73v6.73h-1c-1.91-4.82-5.78-7.68-13.46-7.68-13.51,0-20.23,12.5-20.23,23.1,0,11.54,6.72,21.19,19.22,21.19a18.64,18.64,0,0,0,14.47-6.73v4.82c0,9.64-4.82,14.46-13.46,14.46-5.77,0-9.64-1-15.41-3.87l-1,7.68c6.73,2.92,10.6,2.92,15.42,2.92,15.42,0,22.14-7.74,22.14-20.24l0-42.38Zm40.47,27c0,6.72-4.82,11.54-12.5,11.54-3.87,0-8.69-2.91-8.69-7.73,0-7.68,11.55-7.68,15.41-7.68h5.78Zm-24.11-17.32c3.87-1.91,8.64-3.87,12.51-3.87,8.68,0,11.54,3.87,11.54,11.55a29.72,29.72,0,0,0-8.63-1c-8.63,0-20.24,3.87-20.24,14.47,0,9.64,5.78,14.46,15.42,14.46,7.68,0,11.55-4.82,13.45-6.73h1v4.82h6.72v-26c0-12.5-4.82-18.27-17.32-18.27a31.51,31.51,0,0,0-14.46,3.87l.05,6.67Zm78,12.55c1,6.73-2.85,16.37-11.54,16.37-9.64,0-13.51-9.64-13.51-16.37,0-8.63,4.82-16.37,13.51-16.37S875.46,540.6,874.5,549.29Zm-32.73,39.47h7.68V564.65h.95c1.91,3.87,6.73,7.68,14.46,7.68,13.46,0,18.28-12.5,18.28-24.05s-5.78-22.14-18.28-22.14a18.68,18.68,0,0,0-15.41,7.68v-6.73h-7.68Zm57.74-39.47c0-8.63,5.77-16.37,14.46-16.37s13.51,7.74,13.51,16.37c0,7.68-4.82,16.37-13.51,16.37C904.33,565.66,899.51,557,899.51,549.29Zm-8.64,0a22.82,22.82,0,0,0,23.1,23.1c12.5,0,22.14-10.6,22.14-23.1,0-13.45-9.64-23.09-22.14-23.09C900.46,526.14,890.87,535.78,890.87,549.29Zm55.84-22.2h7.68v6.73a12.49,12.49,0,0,1,11.54-7.68,8.88,8.88,0,0,1,4.82,1v6.73c-1,0-2.91-1-3.86-1-7.74,0-12.5,6.72-12.5,18.27v19.29h-7.68V527.09Zm38.51,17.38c.95-4.82,3.86-11.55,12.5-11.55,6.72,0,10.59,5.78,10.59,11.55Zm27.91,16.37c-1.9,1.91-7.68,4.82-13.45,4.82a14.21,14.21,0,0,1-14.46-14.46H1017c0-14.46-4.82-25-19.23-25-12.5,0-20.23,9.64-20.23,22.14,0,14.46,6.72,24,22.14,24,6.73,0,10.59-1.91,13.45-2.86v-8.69ZM1070,290.26c16.37,15.41,49.11,28.87,88.57,29.82,34.64.95,62.56-9.64,64.52-38.51,3.87-61.61-156-37.56-149.22-142.5,2.86-52,54.88-69.34,110.71-68.39,30.83,0,60.66,7.68,78,16.37v36.61c-20.24-13.46-49.11-22.15-72.2-23.1-35.66,0-64.52,5.78-64.52,31.79-1,54.87,159.81,41.42,154,145.41-3.87,58.74-60.65,77-120.35,76.06-34.65-.95-68.34-7.68-88.57-18.27l-1-45.29ZM919.74,353.82c-74.16,0-116.48-32.73-116.48-101.12V78.42h54.88V252.7c0,42.38,21.19,67.38,61.6,67.38S980.4,295,980.4,252.7V78.42h55.83V252.7c0,68.39-42.38,101.12-116.49,101.12Zm-207-275.4V273.89l-127.08-181a33.44,33.44,0,0,0-27-14.46H516.31V345.14h37.55V149.67L680,330.67c6.73,8.69,16.37,14.47,27.92,14.47h41.37V78.42Z"/><path class="cls-2" d="M384.4,519.41C330.48,605.12,240,635.9,227.45,640.72c-12.5-4.82-103-35.6-157-121.31-54.88-86.66-56.79-155-56.79-164.63V255.61H441.19v99.17c0,9.64-1.91,78-56.79,164.63Z"/><path class="cls-3" d="M422,335.49c-1.9-7.68-5.77-11.54-11.55-14.46-15.41-7.68-34.64-2.86-51,3.87a292.45,292.45,0,0,1-31.78,7.68c-11.55,1.9-48.15,5.77-59.7-3.87-1.91-.95-2.86-3.87-3.87-5.77,0-3.87,1.91-8.69,2.86-10.6,2.86-2.86,10.6-4.82,21.19-4.82l28.87,1c1.9,1.91,5.77,5.78,18.27,7.68,18.28,4.83,38.51-1.9,38.51-1.9a24.68,24.68,0,0,1-6.72-2.86,7.54,7.54,0,0,1-1.91-4.82,23.76,23.76,0,0,0,9.64,1.9c7.68,0,11.55-3.86,18.28-5.77a64.68,64.68,0,0,1,14.46,0S400.77,295,393,294a74.71,74.71,0,0,0-15.42,0,14.39,14.39,0,0,0,4.82-2.86,13,13,0,0,0,2.86-4.82s-8.69,2.86-16.37,2.86c-8.69-.95-7.68-3.87-24.05-3.87-12.5-.95-23.09,6.73-27,10.6-13.45-1-23.09-1.91-29.82-1.91-16.37,0-26,2.86-31.78,9.64-4.83,4.82-7.68,11.55-6.73,20.24.95,6.73,3.87,12.5,8.69,16.37,15.41,12.5,57.79,8.69,72.2,6.73a222,222,0,0,0,31.78-7.68c7.68-2.86,29.82-10.6,39.47-5.78,1.9,1.91,3.86,3.87,3.86,6.73a3.48,3.48,0,0,1,1,2.86c0,1.9-1,3.87-1.91,5.77-8.69,9.64-41.42,11.55-54.88,12.5-1.9,0-11.55-1.9-24.05-2.91a160.21,160.21,0,0,0-22.14,1.9c-14.46,1-27.91,1.91-51-.95q-17.33-1.43-28.87-5.77c0-2.86-1.91-5.78-4.82-8.69,5.77,1.9,13.45-3.87,15.42-7.68,0,0-10.6-2.86-10.6-8.69,0-1,6.73,0,9.64-9.64-6.72-3.87-4.82-4.82-7.68-9.64-2.86-3.87-7.68-6.73-12.5-5.78,1.91-1,1.91,0,3.87-1.9,3.87-1,5.77-5.78,8.69-4.83-5.77-9.64-22.14-11.54-28.87-8.68.95-2.86,3.87-4.82,3.87-7.68-8.69,1.9-17.32-2.86-27-1-7.68,1.91-11.54,4.82-14.46,11.55-2.86-6.73-6.72-9.64-14.46-11.55-8.69-1.9-18.27,2.86-27,1,0,2.86,2.86,4.82,4.82,7.68-7.68-2.86-24.05-1-29.82,8.68,2.85-.95,4.82,3.87,8.68,4.83,1.91,1.9,2.86,1.9,3.87,1.9-4.82-1-8.69,1.91-12.5,5.78-2.86,4.82-1,5.77-7.68,9.64,2.86,9.64,9.64,8.69,9.64,9.64,0,5.77-10.59,8.69-10.59,8.69,1.9,3.87,9.64,9.64,15.41,7.68-4.82,4.82-5.77,8.69-4.82,14.46-6.72-5.77-13.45-11.55-17.32-16.37-1-.95-3.87-10.59-5.77-16.37l-1.91-4.82V319c-2.86-8.69-4.82-15.41-8.69-16.37H56.36c-1.9-1.9-3.87-4.82-5.77-4.82a9.52,9.52,0,0,0-6.73-.95s3.87,2.86,4.82,5.77c1,0,1,1,1,1.91a3.32,3.32,0,0,0-1.91.95h-.95c0,1-1,1-1,1.91h-1c-4.82-1-6.73,0-6.73,0A51.64,51.64,0,0,0,43,310.27c-1.91,2.86-2.86,4.82-2.86,8.69v1c-4.82,0-5.78,1.91-5.78,1.91s3.87.95,5.78,2.85a.94.94,0,0,0,1,1h-1a8.62,8.62,0,0,0-1,4.82A15.38,15.38,0,0,0,44,341s7.68,5.78,8.69,6.73a93.89,93.89,0,0,0,8.69,15.42c.95.95,4.82,8.68,10.6,17.32a7.54,7.54,0,0,0,1.9,3.86c1,4.83,1.91,11.55,2.86,16.37a125.59,125.59,0,0,1,0,20.24s5.77-1,8.63-4.82a59.44,59.44,0,0,1,1.91,14.46c-1,4.82-1.91,12.5-1.91,12.5a67.06,67.06,0,0,0,10.6-6.72c1.9-1.91,3.87-5.78,5.77-7.74,4.82,2.91,18.28-1.91,25.06-4.82,1,2.91,2.86,5.77,5.77,9.64,1-3.87,5.78-6.73,7.68-9.64h1.91c0,4.82-.95,8.63,2.86,17.32a104.92,104.92,0,0,0,11.55,15.42c-1.91,7.68-4.83,22.14-7.68,33.69-3.87,12.5-6.73,19.22-8.69,22.14-4.82,0-13.46,1-16.37,1-6.73-1-12.5.95-15.42,3.87a.93.93,0,0,1-.95.95,10.11,10.11,0,0,0-6.73,2.92,8.92,8.92,0,0,0-2.86,5.77s3.87-2.86,6.73-2.86h1v1a3.48,3.48,0,0,0,1,2.86l-1,1c-2.85,3.86-2.85,5.77-2.85,5.77s3.86-1.91,5.77-1.91c1,1,1.9,2.92,3.87,3.87-1,0-1,0-1,1-1.9,3.87-1.9,5.78-1.9,5.78a27.54,27.54,0,0,1,5.77-2.86c0,1,1,1.91,1.91,2.86,4.82,2.86,14.46,1,27.91-2.86l7.68-1.91c5.78-1,9.65-2.86,11.55-6.72.95-1.91,1.91-2.86,1.91-5.78l.95-1.9c1.91-5.78,2.86-8.64,6.73-14.47,0,0,3.86-5.77,8.69-13.45,3.86-2.91,8.68-7.73,12.5-9.64,5.77-3.87,17.32-9.64,17.32-9.64s-2.86-4.82-7.68-5.78c0,0,5.77-5.77,10.59-7.73a48.63,48.63,0,0,1,12.5-3.87,30.18,30.18,0,0,0-6.72-7.68c1.9,0,2.86-.95,4.82-2.91,9.64-5.78,16.37-5.78,23.09-3.87,0-3.87-.95-6.73-4.82-9.64,3.87-1,6.73-1.91,10.6-2.92l4.82,9.64c5.77,6.73,12.5,16.37,18.27,22.15a.93.93,0,0,1,1,.95c0,1.9-3.86,8.63-4.82,12.5l-1.9,3.87s-5.78,13.51-7.68,18.33c-3.87,0-13.46.95-17.32,0-6.73,0-11.55.95-14.47,4.82a.93.93,0,0,0-.95.95c-2.86,0-5.77.95-6.73,2.86-2.85,3.87-2.85,5.77-2.85,5.77s3.86-1.9,6.72-1.9h1a4.89,4.89,0,0,0,1,2.91c-1,0-1,1-1.91,1.91-1.9,3.87-1.9,5.77-1.9,5.77s3.86-2.86,6.72-2.86c1,1,1,1.91,1.91,2.86a.94.94,0,0,1-1,1c-1.91,3.86-1.91,5.77-1.91,5.77s3.87-2.92,5.77-2.92l2.86,2.92c3.87,2.86,12.5.95,24-1.91L273,525c5.77-1,9.64-2.91,11.55-6.72l2.86-4.82c.95-1.91,1.9-4.82,2.86-6.73s2.85-3.87,3.86-6.73l4.82-4.82c3.87-2.91,13.46-7.73,13.46-7.73s-1.91-3.87-5.78-3.87c0,0,3.87-4.82,7.68-6.73a100.91,100.91,0,0,1,9.65-3.87,65.77,65.77,0,0,0-7.68-4.82c-1,0-2.86-.95-4.83-.95,0-1.91-1-3.87-2.85-6.73-2.86-4.82,1.9-16.37,4.82-22.14,1.9,1.91,4.82,6.73,10.59,12.5,0,0,16.37,17.32,20.24,22.14-1,2.92-3.87,11.55-6.73,21.19a188.36,188.36,0,0,1-8.69,19.23H312.48c-6.72,0-11.54.95-14.46,3.87l-1.9,1.9c-1.91,1-3.87,1.91-5.78,2.86-2.86,3.87-1.9,5.78-1.9,5.78a8.39,8.39,0,0,1,5.77-1.91h1a3.49,3.49,0,0,0,1,2.86c-1,0-1,.95-1.91,1.91a11.43,11.43,0,0,0-1.91,5.77s3.87-2.86,5.78-2.86H299a12.77,12.77,0,0,1,2.86,3.87c-2.86,3.87-2.86,5.77-2.86,5.77a28.1,28.1,0,0,1,5.77-2.86,2.05,2.05,0,0,0,1.91,1.91c3.87,3.87,12.5,1.91,24.05-1.91l7.68-1.9c5.77-1,8.69-2.86,11.55-6.73.95-1.9,5.77-14.46,7.68-17.32a148.08,148.08,0,0,1,7.68-18.27,13.5,13.5,0,0,0,3.86-2.92l14.47-8.63s-1.91-3.87-5.78-4.82l7.68-5.78c2.86-1.9,9.64-3.86,9.64-3.86s-4.82-2.92-7.68-4.83c-1.9-.95-4.82-.95-6.72-1.9-1-2.86-1.91-2.86-3.87-4.82a20.6,20.6,0,0,1-8.69-6.73c-4.82-5.77-5.77-16.37-5.77-27.92V405.62c0-12.5-1.91-21.19-3.87-27,16.37-1,47.2-4.82,58.75-20.24,3.86-3.87,5.77-9.64,5.77-15.41a34.78,34.78,0,0,0-1.18-7.52Z"/><path class="cls-1" d="M191.85,323c1.91-1.9,8.69-6.72,4.82-12.5-2.86-6.72-11.55-3.87-13.45-2.86,0-.95-18.28-8.68-18.28-8.68l-6.72,8.68s-7.68-8.68-6.73-8.68c-1,0-18.27,7.67-18.27,8.68-2.86-.95-10.6-3.86-14.47,2.86-2.86,5.78,2.86,10.6,5.78,12.5l-5.78,10.6,16.37,20.23v12.5l6.73,4.83c1.9,4.82,1.9,7.68,2.86,10.59.95.95,6.72,1.91,12.5,2.86h.95c5.77-1,12.5-1.91,12.5-2.86a79.36,79.36,0,0,0,2.86-10.59l6.73-4.83v-12.5l17.32-20.23L191.85,323Zm-57.79,1h15.41l-.95,8.68Zm34.64,8.68c0,1,1.91,21.19,1.91,21.19L160,359.6v7.73s1.91,1.91,3.87,1.91a12.22,12.22,0,0,0,7.68.95h.95l-.95,2.86c-.95,0-4.82.95-7.68,0a13.65,13.65,0,0,1-4.82-2.86h-1.91c-1,0-1.9,1.91-4.82,2.86a18,18,0,0,1-7.68,0h-1v-2.86h1a9.45,9.45,0,0,0,6.73-.95c1.9,0,3.87-1.91,4.82-1.91V359.6c-.95,0-11.55-7.68-11.55-7.68h20.24V324h18.27c0-.05-13.45,8.63-14.46,8.63ZM304.47,472.22c1.9-1.91,2.86-2.86,2.86-4.83,0-.95-1-1.9-1.91-4.82-1.9-1.9-1.9-3.86-1.9-6.72,0-7.74,4.82-17.32,7.67-21.19l-2.85-2.86-1-.95a19.41,19.41,0,0,1-7.68-7.74.93.93,0,0,1-.95-.95c-4.82,0-15.42,0-26,2.86a8.81,8.81,0,0,1,3.87,7.68,39.56,39.56,0,0,0-18.28-1c1.91,2.86,3.87,6.73,4.82,7.68,4.83,6.73,11.55,16.37,17.33,22.14a5,5,0,0,1,1.9,3.87c0,2.86-2.86,8.64-5.77,14.46l-.95,3.87L267,504h-1c-.95,0-14.46.95-19.28.95-4.82-.95-8.69,0-10.59,1.91v3.87l-1.91,1.9v1a16.91,16.91,0,0,1,4.82-1s1.91,1.91.95,3.87a5.17,5.17,0,0,1-1.9,3.87.93.93,0,0,1,1,1,11.45,11.45,0,0,1,5.77-1.91s1.91,2.86,1.91,4.83a7.2,7.2,0,0,1-1.91,2.85c3.87,1,13.46-1.9,19.23-2.85l8.69-2.86c3.87-1,6.73-1.91,8.69-4.82l1.9-4.83c1-1.9,1.91-4.82,2.86-6.72,2.86-3.87,5.78-10.6,8.69-16.37,3.81-7.74,6.73-13.51,9.59-16.42Zm-181-76c-2.86,3.87-7.68,5.78-14.46,6.73a26.62,26.62,0,0,0-1.91-15.42c-1.9-4.82-7.68-12.5-8.63-17.32-.95-1.9-.95-2.86-1.9-3.87-8.69-6.72-18.28-14.46-23.1-21.18-.95-1-2.86-6.73-5.77-17.33L65.78,323v-2.86c-2.86-7.68-4.82-12.5-5.77-13.45H58.1s-1,2.86-4.82,1.91H50.36l-1,1a38.85,38.85,0,0,1,3.87,4.82,6.66,6.66,0,0,1-3.87,3.87,7.51,7.51,0,0,1-4.82-1.91v-1.9c-1,1.9-1,4.82-1,6.72A45.37,45.37,0,0,1,49.41,326a4.27,4.27,0,0,1-2.86,3.87,3,3,0,0,1-3.86,0,11.61,11.61,0,0,0,3.86,8.63l8.64,6.73,1,.95c2.86,6.73,5.77,12.51,7.68,14.47.95.95,3.87,5.77,10.59,18.27,10.6,17.32,25.06,42.38,28.87,47.2,1,.95,11.55-.95,21.19-5.77-2.91-9.7,0-15.47-1-24.11Z"/><path class="cls-1" d="M418.09,336.5c-1.9-6.72-4.82-9.64-9.64-11.54-13.45-7.68-31.78-1.91-48.15,3.86-13.45,3.87-17.32,5.78-31.78,7.68-15.42,1.91-51,6.73-63.57-3.87-1.91-1.9-4.82-6.72-4.82-9.64A27.14,27.14,0,0,1,264,309.54c3.86-3.87,11.54-5.77,24-5.77h29.83l1.9-1.91-1.9-1.91c-13.46-.95-23.1-1.9-29.83-1.9-15.41,0-24,2.86-28.87,8.69-3.86,3.86-5.77,9.64-5.77,17.32.95,4.82,2.86,9.64,7.68,13.45,13.45,10.6,52,7.68,68.39,4.82s21.19-3.87,30.83-6.72h.95c8.69-2.86,31.79-10.6,42.38-4.82,2.86.95,4.82,3.86,6.73,7.67.95,5.78,0,9.65-2.86,12.51-9.64,12.5-41.37,13.45-57.79,14.46h-1a131.3,131.3,0,0,0-23.09-1.91,172.57,172.57,0,0,0-22.14,1,243.22,243.22,0,0,1-52-1,179.12,179.12,0,0,1-27.92-4.82c-.95,2.92-1.9,6.73-3.86,11.55-1,4.82-6.73,12.5-8.69,17.32A26.55,26.55,0,0,0,209.17,403c-6.72-1-11.55-2.86-13.45-6.73-1.91,11.55,3.87,18.27-9.64,37.56-1-5.78-8.69-7.68-8.69-13.46-1.91,5.78,1.9,9.64-3.87,21.19-1,2.86-9.64,14.46-13.45,17.32-1.91,7.74-4.82,21.19-7.68,32.74-3.87,14.46-7.68,22.14-9.64,24v1h-1c-4.82.95-15.41.95-19.22.95s-7.68,0-10.6,1.91a3,3,0,0,1,0,3.87c-1,1.9-1.91,1.9-2.86,2.91h1a20.76,20.76,0,0,1,5.78-1,10.25,10.25,0,0,1,0,5.77c-1,1-1,1.91-1.91,1.91,0,.95,1,.95,1,1.91a13.74,13.74,0,0,1,6.72-1.91s1.91,1.91,1,5.77c-1,1-1,1.91-1.91,1.91,4.82,1,16.37-1.91,23.09-3.87l7.68-1.9c4.83-1,7.68-1.91,9.65-5.78a9.92,9.92,0,0,0,.95-3.87l.95-2.91a73.94,73.94,0,0,1,7.68-14.46c7.68-13.46,33.69-54.88,34.64-58.75a41.82,41.82,0,0,0-1.9-10.59l-1-1.91s81.84-24.1,86.66-25.06c-.95-2.91-4.82-8.69-4.82-8.69l2.86-2.86a112.41,112.41,0,0,1,10.59,8.64c2.86,2.91,5.78,7.73,8.69,12.5l1.91,1.9a40.16,40.16,0,0,0,6.72,9.65v.95s2.86,4.82,11.55,14.46l21.19,23.1v1s-2.86,11.55-6.73,24.1c-2.86,7.68-7.68,16.37-9.64,20.24v1H312.15a26,26,0,0,0-10.6,1.91c0,1.9,1,2.86,0,4.82-.95,1-1.9,1.91-2.86,1.91l1,.95a16.91,16.91,0,0,1,4.82-.95,4.86,4.86,0,0,1,.95,4.82c0,1.9-.95,2.85-1.9,2.85l1,1c2.86-1.91,7.68-1.91,7.68-1.91a11.73,11.73,0,0,1,1,4.82c-1,1-1.91,1.91-1.91,2.92,3.87,0,12.51-1.91,17.33-3.87l8.69-1.91a11.91,11.91,0,0,0,8.68-5.77c1-1,5.78-11.55,7.68-16.37A334.29,334.29,0,0,1,370.89,476l2.86-4.82c1.91-1.91,2.86-3.87,2.86-5.78s0-1.9-1.9-2.91-4.82-2.86-9.65-7.68c-6.72-8.64-6.72-24-6.72-38.51v-10.6c0-13.45-2.86-23.09-3.87-27.91l-1-2.86h1.9c15.42-1,47.2-3.87,58.75-18.28C419.05,350.91,420,344.18,418.09,336.5Z"/><path class="cls-2" d="M336.25,173.77a21,21,0,0,1,4.82,7.68h-8.69C333.39,178.59,334.35,175.68,336.25,173.77Z"/><path class="cls-1" d="M385.36,150.68v-2a49.11,49.11,0,0,0-98.21,0v1.91c-15.42,7.68-26,24-26,43.33a49.31,49.31,0,0,0,49.1,49.11,48.44,48.44,0,0,0,26-7.68,48.31,48.31,0,0,0,26,7.68A49.31,49.31,0,0,0,411.37,194C411.37,175.68,400.77,159.31,385.36,150.68Zm-53,47.14h7.68c0,3.87-1.9,7.68-3.86,10.59-1.85-2.85-2.81-6.72-3.82-10.59Zm27-5.77c9.64-4.83,16.37-12.5,21.19-22.15,7.68,5.78,11.54,14.47,11.54,24a30,30,0,0,1-29.82,29.88,48.41,48.41,0,0,1-11.55-1.91A50.17,50.17,0,0,0,359.4,194l0-2Zm-49.11-47.2h-3.87a30.15,30.15,0,0,1,59.7,0h-3.86a51,51,0,0,0-26,7.68A48.44,48.44,0,0,0,310.24,144.85Zm52,19.28a66,66,0,0,1-7.68,8.69c-.95-1.91-1.9-4.82-3.87-6.73C354.58,164.13,358.39,164.13,362.26,164.13ZM292,169.9a52.45,52.45,0,0,0,21.19,22.15V194c0,9.64,3.86,19.28,8.69,27a25.78,25.78,0,0,1-11.55,2.86,30,30,0,0,1-29.82-29.87C280.42,184.37,285.24,175.68,292,169.9Zm26,2.92c-2.86-1.91-5.78-5.78-7.68-8.69,3.87,0,8.69,0,11.55,1.91-1,2-2.92,4.82-3.87,6.78ZM214,111.16a335.05,335.05,0,0,0-41.37-2.86A108.72,108.72,0,0,0,133.16,116,108.72,108.72,0,0,0,93.7,108.3a338,338,0,0,0-41.43,2.86l-1.91,1V228.59l2.86-1s15.42-3.87,37.56-3.87c17.32,0,34.64,4.82,41.37,7.68h1.91c6.72-2.86,24.05-7.68,41.37-7.68A180.88,180.88,0,0,1,213,227.64l2.86,1V112.11Z"/><path class="cls-2" d="M130.19,121.75c-6.73-2.86-21.19-7.68-36.61-7.68A246,246,0,0,0,56,116.93V205.5a210.71,210.71,0,0,1,35.65-2.86c14.46,0,29.82,2.86,38.51,5.77Zm42.38-7.68c-15.42,0-29.82,4.82-36.61,7.68v86.66c8.69-2.85,24-5.77,39.47-5.77a210.55,210.55,0,0,1,34.64,2.86V116.93a244.56,244.56,0,0,0-37.5-2.86Z"/><path class="cls-3" d="M72.45,129.49c-1.9,0-2.86,1.9-2.86,3.86,1,1.91,2.86,2.86,5.78,2.86a90.78,90.78,0,0,1,20.23-2.86c8.69,0,18.28,4.83,18.28,4.83,2.86,0,4.82-1,5.77-2.86.95-1,0-3.87-2.86-3.87,0,0-10.59-4.82-21.19-4.82s-22.2,1.9-23.15,2.86Zm0,17.32c-1.9,0-2.86,1.9-2.86,3.87,1,1.9,2.86,2.85,5.78,2.85a133.73,133.73,0,0,1,20.23-1.9c8.69,0,18.28,3.87,18.28,3.87a8.21,8.21,0,0,0,5.77-1.91c.95-1.9,0-3.87-2.86-4.82,0,0-10.59-4.82-21.19-4.82s-22.2,2.86-23.15,2.86Zm0,17.32c-1.9,0-2.86,1.91-2.86,3.87,1,1.9,2.86,2.86,5.78,2.86A133.05,133.05,0,0,1,95.6,169c8.69,0,18.28,3.87,18.28,3.87,2.86,1,4.82,0,5.77-1.91s0-3.87-2.86-4.82c0,0-10.59-4.82-21.19-4.82s-22.2,2.86-23.15,2.86Zm0,17.32a5.27,5.27,0,0,0-2.86,4.82c1,1.91,2.86,2.86,5.78,1.91a133.05,133.05,0,0,1,20.23-1.91c8.69,0,18.28,3.87,18.28,3.87,2.86,1,4.82,0,5.77-1.91s0-3.86-2.86-4.82c0,0-10.59-3.86-21.19-3.86s-22.2,1.9-23.15,1.9Zm121.31-52c2.86,0,3.86,1.9,2.86,3.86,0,1.91-2.86,2.86-4.83,2.86,0,0-11.54-2.86-21.18-2.86-8.69,0-18.28,4.83-18.28,4.83a5.32,5.32,0,0,1-4.82-2.86c-.95-1,0-3.87,1.91-3.87,1,0,11.54-4.82,21.19-4.82C182.21,126.57,193.76,128.53,193.76,129.49Zm0,17.32c2.86,0,3.86,1.9,2.86,3.87,0,1.9-2.86,2.85-4.83,2.85a155.14,155.14,0,0,0-21.18-1.9c-8.69,0-18.28,3.87-18.28,3.87a7.46,7.46,0,0,1-4.82-1.91c-.95-1.9,0-3.87,1.91-4.82,1,0,11.54-4.82,21.19-4.82A106,106,0,0,1,193.76,146.81Zm0,17.32c2.86,0,3.86,1.91,2.86,3.87,0,1.9-2.86,2.86-4.83,2.86A154.35,154.35,0,0,0,170.61,169c-8.69,0-18.28,3.87-18.28,3.87-1.9,1-3.87,0-4.82-1.91s0-3.87,1.91-4.82c1,0,11.54-4.82,21.19-4.82A110.4,110.4,0,0,1,193.76,164.13Zm0,17.32c2.86,1,3.86,2.86,2.86,4.82,0,1.91-2.86,2.86-4.83,1.91a154.35,154.35,0,0,0-21.18-1.91c-8.69,0-18.28,3.87-18.28,3.87-1.9,1-3.87,0-4.82-1.91s0-3.86,1.91-4.82c1,0,11.54-3.86,21.19-3.86A163.36,163.36,0,0,1,193.76,181.45Z"/><path class="cls-2" d="M345.89,196.87c2.86,0,4.82-1,7.68-1.91a42.21,42.21,0,0,1-7.68,24c-1.9-1.91-4.82-2.86-5.77-4.82,2.86-5.78,4.82-10.6,5.77-17.32Zm-9.64-91.49c24.05,0,43.33,20.24,43.33,43.33,0,24-19.28,44.29-43.33,44.29l-3.87-.95c0-1.91,1-4.83,1-7.68h2.86c20.23,0,35.65-15.42,35.65-35.66,0-19.22-15.42-34.64-35.65-34.64a35.6,35.6,0,0,0-35.66,31.79c-2.85.95-4.82,1.9-7.68,2.85,1-24,20.3-43.33,43.39-43.33Z"/><path class="cls-2" d="M362.26,150.68h3.87c0,2.85,0,5.77-.95,7.68h-2.86a30.33,30.33,0,0,0-15.42,3.86c-.95-2.86-3.87-4.82-5.77-5.77A40.74,40.74,0,0,1,362.26,150.68Zm-52,86.6a43.18,43.18,0,0,1-43.33-43V194a43.14,43.14,0,0,1,42.94-43.33h.34c17.32,0,32.73,9.64,39.46,25.06a11,11,0,0,1-7.68,2.86,35,35,0,0,0-31.78-20.24c-19.29,0-35.66,16.37-35.66,35.6s16.37,35.65,35.66,35.65c5.77,0,10.59-1,15.41-3.87,1.91,2.86,3.87,4.82,5.78,5.77a40.14,40.14,0,0,1-21.14,5.83Z"/><path class="cls-2" d="M304.47,164.13A42.38,42.38,0,0,0,316,178.59c-1,2.86-1.91,4.82-1.91,7.68-7.68-3.87-13.45-10.59-17.32-19.23a57.81,57.81,0,0,1,7.68-2.91Zm57.79,73.15a43.18,43.18,0,0,1-43.33-43V194c0-8.63,2.86-17.32,7.68-25.06,2.86,1.91,4.82,2.86,6.73,4.83A33.77,33.77,0,0,0,326.61,194c0,19.28,16.37,35.65,35.65,35.65A35.56,35.56,0,0,0,397.91,194a35.15,35.15,0,0,0-15.41-28.87,28.2,28.2,0,0,0,1.9-8.69c13.46,7.68,21.19,22.15,21.19,37.56a43.17,43.17,0,0,1-43,43.33Z"/></svg>