<svg id="图层_1" data-name="图层 1" xmlns="http://www.w3.org/2000/svg" viewBox="0 0 1280 720"><defs><style>.cls-1{fill:#fff;}</style></defs><path class="cls-1" d="M686,362.84q-33.25,0-66.5,0c-10.38,0-14.68-4.28-14.77-14.68-.09-10.08,0-20.16,0-30.23,0-11.28-3.42-14.6-14.93-14.63-8.73,0-17.46.06-26.19,0-9.27-.1-13.58-4.33-13.66-13.58q-.17-21.17,0-42.32c.08-8.91,4.39-13.12,13.27-13.21,9.63-.09,19.26.11,28.88-.08,8.6-.17,12.48-4.3,12.61-13,.07-4.47.11-9,0-13.43-.21-7.88-4.09-12-12-12.17-9-.24-17.91,0-26.87-.09-10.86-.07-14.63-3.8-14.67-14.48,0-11.2.06-22.4,0-33.59-.09-9.8-4.09-13.7-14-13.79-8.73-.07-17.46.08-26.19,0-9.22-.14-13.54-4.45-13.61-13.67q-.15-20.82,0-41.65c.08-9.37,4.34-13.55,13.57-13.58q20.82-.07,41.65,0c10.2,0,14,3.9,14.09,14.38.08,11.42,0,22.84.07,34.26.06,9,4.13,13,13.21,13.06,8.73.08,17.47,0,26.2,0,10,.08,14.08,4.23,14.13,14.42.05,10.52-.07,21,.05,31.57.1,8.67,4.07,12.66,12.77,13,4.24.14,8.51.1,12.76,0,9-.26,12.84-4.26,12.91-13.47.09-11.2,0-22.39.06-33.59.07-10.17,4.11-14.11,14.39-14.16,9.18,0,18.36.1,27.54-.06,8.62-.14,12.7-4.29,12.79-12.85.1-10.3,0-20.6,0-30.91s4-14.48,14-14.55q20.82-.15,41.64,0c9.4.07,13.44,4.17,13.49,13.59.08,14.11.11,28.22,0,42.32-.06,8.55-4.28,12.86-12.74,13-9.4.16-18.81,0-28.21.07-9.82.07-13.74,4-13.82,14-.09,10.3,0,20.6-.07,30.9-.1,9.41-4.11,13.49-13.58,13.66-9,.17-17.91,0-26.87.06-9.22.07-13.12,3.89-13.2,13-.11,11.41,0,22.84-.09,34.26-.08,9.47-4.16,13.56-13.46,13.63s-18.36-.05-27.54,0c-9.87.1-13.92,4.12-14.06,13.84-.06,4.7-.16,9.41.06,14.1.33,6.76,4.1,10.66,10.82,11.43a62.32,62.32,0,0,0,6.7.14q57.11,0,114.19,0c12.53,0,16.09,3.51,16.1,15.84,0,13,.06,26,0,39-.06,10-4.36,14.28-14.34,14.29Q719.25,362.89,686,362.84Z"/><path class="cls-1" d="M968.13,581.86c0-19.7,0-39.41,0-59.12,0-10.23,3-13.15,13.26-13.16,25.74,0,51.5-.41,77.24.21,9.24.22,18.92,1.52,27.54,4.68,23.48,8.61,31.82,31.89,20.34,54.08-3,5.9-2.2,11.11,1.84,16.17,16.93,21.17,10.77,50.55-13.78,62.16a66.06,66.06,0,0,1-25.69,6.46c-30,.8-60,.41-90,.35-7.65,0-10.68-3.29-10.71-11.37-.09-20.15,0-40.31,0-60.46Zm72.06,10.62h-24.8c-6,0-9,3.18-9.15,9.11-.08,5.36-.1,10.73,0,16.08.16,5.62,3.23,8.77,8.82,8.81,16.53.1,33.07.22,49.59-.09,9.48-.17,14.64-6.65,14.62-17.16s-5.35-16.48-15-16.71C1056.28,592.33,1048.23,592.48,1040.19,592.48Zm-2.47-26.9h20.79c9.83-.13,15-4.91,15.12-13.94s-4.93-14.2-14.68-14.39c-11.62-.23-23.25-.08-34.87-.09-17.42,0-18.62,1.26-17.86,18.72.29,6.8,3.07,9.57,10,9.67C1023.42,565.66,1030.57,565.58,1037.72,565.58Z"/><path class="cls-1" d="M956.26,582.07V639.8c0,11.78-2.18,13.92-14.21,13.93-4.7,0-9.4,0-14.1,0-6.29,0-9.53-3.36-9.81-9.46-.24-5.14-.11-10.3-.12-15.44,0-6.31-3.17-9.6-9.46-9.62-17.9-.06-35.8,0-53.7,0-5.52,0-8.73,2.6-10,8s-2.73,10.83-4.26,16.2c-2.06,7.22-6.1,10.29-13.64,10.39-6.27.09-12.54.19-18.8-.05-5.58-.21-8.28-3.57-6.88-8.92C810,611.43,818.21,578,827.92,545c6.39-21.71,24.17-31.71,45.18-33.48,24.67-2.09,49.58-1.51,74.4-1.76,5.85-.06,8.69,4.07,8.71,11.25.08,20.36,0,40.73,0,61.1Zm-68.73,8.31v0c6.93,0,13.86,0,20.79,0,6.26,0,9.64-2.94,9.66-9.32q0-16.77,0-33.53c0-6-3.08-9.09-9.14-9.07-6.93,0-13.86-.1-20.78.11-11.46.35-20.62,7.07-24.14,18-2.4,7.44-4.37,15-6.31,22.6-1.7,6.69,1.49,10.93,8.46,11.15C873.22,590.55,880.38,590.38,887.53,590.38Z"/><path class="cls-1" d="M643.22,581.65q0,29.88,0,59.75c0,9.59-2.71,12.25-12.4,12.32-5.15,0-10.3.11-15.44,0-6.77-.15-9.9-3-10.33-9.69-.33-5.12-.13-10.29-.12-15.43,0-6-3-9.34-8.94-9.38-18.35-.11-36.7-.05-55,0-5,0-7.81,2.73-9,7.41q-2.18,8.46-4.44,16.88c-1.79,6.63-5.94,10.29-13,10.22-5.82,0-11.64.09-17.45,0-7.86-.11-10.23-2.92-8.3-10.5,5.09-19.94,10.4-39.81,15.64-59.7,2.78-10.6,5.9-21.11,8.36-31.78,5.1-22.17,19.46-34.81,41-39.19,10.21-2.07,20.84-2.56,31.31-2.87,15.2-.47,30.43-.15,45.64-.13,9.56,0,12.49,2.88,12.5,12.34C643.24,541.81,643.21,561.73,643.22,581.65Zm-69.08,8.75v0c7.15,0,14.3,0,21.45,0,5.92,0,9.27-2.87,9.31-8.93q.11-17.1,0-34.2c0-5.68-3-8.7-8.73-8.74-6.71,0-13.41-.08-20.11,0-12.5.22-21.8,7.08-25.47,19-2.16,7-4,14.17-5.85,21.31s1.33,11.31,8.62,11.5C560.28,590.54,567.21,590.4,574.14,590.4Z"/><path class="cls-1" d="M439,575.54c11.42,0,22.84,0,34.25,0,6.1,0,10.68,3,10.47,8.9-.42,11.76-.47,24-3.67,35.11-5.2,18.06-19.22,28.36-37.22,32.22-22.54,4.83-45.53,4.72-68.07.8C348.16,647.92,331.63,630.81,328,604a165.41,165.41,0,0,1-.14-43.33c3.5-26.53,19.54-43.27,45.79-48.9,22.3-4.78,44.95-4.49,67.42-.88a59.22,59.22,0,0,1,29.86,14.46c6.54,5.76,10.23,12.86,9.8,21.84-.23,4.92-2.76,7.9-7.25,9.34-11.85,3.8-22.37.24-29.59-10.12-4.31-6.17-10.82-8.15-17.56-8.34-12.27-.33-24.65-.57-36.84.65-14.36,1.43-20.78,7.71-23.65,21.65a104.81,104.81,0,0,0,.35,44.67c3,13.19,9.05,19.42,22.35,20.39,13.09.95,26.36.3,39.5-.53A18.7,18.7,0,0,0,444,614.05c3.27-6.6.92-11.15-6.52-11.42-10.51-.39-21.05-.13-31.57-.2-9.83-.06-12.42-3-12.37-13.86,0-9.88,3-13,12.61-13C417.08,575.5,428.05,575.54,439,575.54Z"/><path class="cls-1" d="M1195.93,509.56c7.61,0,15.23-.25,22.83.05a64,64,0,0,1,35,12.11c8.23,5.86,13.69,13.52,14.09,24,.29,7.57-3.61,11.62-11.12,12.24-11.29.93-20.94-.2-27.12-12.2-2-3.85-9.2-6.47-14.28-7-12.44-1.21-25-.95-37.57-1-2.62,0-5.8.19-7.75,1.62-2.82,2.09-6.35,5.24-6.6,8.19s2.61,7.71,5.26,8.76a260.86,260.86,0,0,0,30,9.44c11.68,3.06,23.71,4.86,35.26,8.31a96,96,0,0,1,21.17,9.79c14.38,8.54,18.11,22.22,15.63,37.71-2.3,14.31-11.19,23.75-24.94,28-7,2.15-14.38,4.09-21.63,4.22-19.66.35-39.38.32-59-.85-11.53-.68-21.93-6.08-30.85-13.66-6.79-5.77-11.21-13-10.72-22.14.18-3.15,2-7.2,4.36-9.07,8-6.2,26.46-2.1,31.3,6.79,3.76,6.92,9.6,10,16.9,10.26,14.09.58,28.19.84,42.29.92a22.47,22.47,0,0,0,9.06-2c7.23-3.25,8.32-12,1.56-16-5.67-3.32-12.23-5.4-18.64-7.13-17.47-4.69-35.1-8.77-52.59-13.4a63.44,63.44,0,0,1-12.33-5.24c-13.74-7-21.62-17.8-20.74-33.81s8.42-27.63,23.52-33.65C1163.61,508.67,1179.77,508.7,1195.93,509.56Z"/><path class="cls-1" d="M275.42,560.68c0-13-.07-26,0-39,.06-8.76,3.48-12.05,12.31-12.14,5.37-.06,10.75-.19,16.11.07,6.05.29,9.82,3.79,9.85,9.77.15,27.76,1.1,55.58-.38,83.27-1.62,30.16-18.31,47-48.3,50.76-18.87,2.34-38,2.89-56.75-1.54-22.86-5.39-38.17-22.66-39-46.21-1.05-28.62-.6-57.3-.6-86,0-6.4,3.72-9.86,10.12-10.11,5.59-.22,11.19-.15,16.79,0,7.6.17,11,3.56,11.05,11.2.07,24.18,0,48.36.07,72.55A76.94,76.94,0,0,0,207.6,606q3.28,19.31,23,20c6.49.25,13,.15,19.48,0,15.79-.31,24.61-8.57,25.17-24.45.47-13.64.09-27.31.09-41Z"/><path class="cls-1" d="M62.93,621.83c3.3-13-3.27-25.63-12-38.25C36.9,563.13,23.79,542,10.54,521a13.25,13.25,0,0,1-1.76-9.1c.29-1.29,4.93-2.21,7.62-2.25,27.8-.4,27.78-.34,41.35,23.8,5.37,9.56,10.56,19.24,16.42,28.48,1.81,2.85,5.57,6.14,8.44,6.14s6.58-3.37,8.26-6.24c7.55-12.93,14.69-26.12,21.62-39.41,4.64-8.9,11.57-13.25,21.59-12.89,4.92.17,9.85,0,14.77,0,7.65.12,9.68,3.63,5.56,10.28-6,9.7-12.33,19.2-18.53,28.77-10.34,16-20.89,31.8-30.87,48a28.42,28.42,0,0,0-3.81,13.09c-.54,10.94-.07,21.93-.25,32.89-.14,8.45-3,11-11.52,11.12q-7.38.07-14.77,0c-8.91-.13-11.67-2.87-11.72-11.59C62.9,636.27,62.93,630.45,62.93,621.83Z"/><path class="cls-1" d="M655.49,582.12c0-20.15,0-40.3,0-60.46,0-8.75,3.4-12,12.27-12.09,4,0,8.05,0,12.08,0,10.89,0,13.7,2.91,13.69,14.07q0,43.67,0,87.33c0,12.62,1.63,14.25,14.3,14.25H777.7c9.74,0,12.67,3,12.72,12.91.06,13-1.87,15.55-12.57,15.56q-55.08.07-110.15,0c-9.67,0-12.2-2.67-12.21-12.46Q655.46,611.67,655.49,582.12Z"/></svg>